HIERARCHY
ROOT Hips
{
    OFFSET 0.000000 0.000000 0.000000
    CHANNELS 6 Xposition Yposition Zposition Zrotation Xrotation Yrotation
    JOINT Spine
    {
        OFFSET 0.000005 7.982487 0.000007
        CHANNELS 3 Zrotation Xrotation Yrotation
        JOINT Spine1
        {
            OFFSET -0.000008 23.674410 -0.000012
            CHANNELS 3 Zrotation Xrotation Yrotation
            JOINT Neck
            {
                OFFSET -0.000001 27.576822 -0.000003
                CHANNELS 3 Zrotation Xrotation Yrotation
                JOINT Head
                {
                    OFFSET 0.000004 17.278074 2.035177
                    CHANNELS 3 Zrotation Xrotation Yrotation
                    End Site
                    {
                        OFFSET 0.000000 20.351660 0.000000
                    }
                }
            }
            JOINT LeftShoulder
            {
                OFFSET 4.036571 20.304852 -0.371907
                CHANNELS 3 Zrotation Xrotation Yrotation
                JOINT LeftArm
                {
                    OFFSET 12.502554 0.000006 0.000005
                    CHANNELS 3 Zrotation Xrotation Yrotation
                    JOINT LeftForeArm
                    {
                        OFFSET 31.806923 0.000000 0.000000
                        CHANNELS 3 Zrotation Xrotation Yrotation
                        JOINT LeftHand
                        {
                            OFFSET 24.843233 0.000001 0.000000
                            CHANNELS 3 Zrotation Xrotation Yrotation
                            JOINT LeftHandThumb1
                            {
                                OFFSET 2.126752 -2.416754 3.383466
                                CHANNELS 3 Zrotation Xrotation Yrotation
                                JOINT LeftHandThumb2
                                {
                                    OFFSET 3.212140 0.000000 -0.000003
                                    CHANNELS 3 Zrotation Xrotation Yrotation
                                    JOINT LeftHandThumb3
                                    {
                                        OFFSET 2.745435 0.000002 0.000008
                                        CHANNELS 3 Zrotation Xrotation Yrotation
                                        End Site
                                        {
                                            OFFSET 2.793713 0.000000 0.000000
                                        }
                                    }
                                }
                            }
                            JOINT LeftHandIndex1
                            {
                                OFFSET 8.700333 -0.000002 3.383461
                                CHANNELS 3 Zrotation Xrotation Yrotation
                                JOINT LeftHandIndex2
                                {
                                    OFFSET 4.833514 -0.000005 0.000004
                                    CHANNELS 3 Zrotation Xrotation Yrotation
                                    JOINT LeftHandIndex3
                                    {
                                        OFFSET 2.416764 0.000004 -0.000007
                                        CHANNELS 3 Zrotation Xrotation Yrotation
                                        End Site
                                        {
                                            OFFSET 2.459254 0.000000 0.000000
                                        }
                                    }
                                }
                            }
                            JOINT LeftHandMiddle1
                            {
                                OFFSET 8.700328 -0.000006 1.121379
                                CHANNELS 3 Zrotation Xrotation Yrotation
                                JOINT LeftHandMiddle2
                                {
                                    OFFSET 5.316864 -0.000007 0.000004
                                    CHANNELS 3 Zrotation Xrotation Yrotation
                                    JOINT LeftHandMiddle3
                                    {
                                        OFFSET 2.900116 0.000004 0.000005
                                        CHANNELS 3 Zrotation Xrotation Yrotation
                                        End Site
                                        {
                                            OFFSET 2.951103 0.000000 0.000000
                                        }
                                    }
                                }
                            }
                            JOINT LeftHandRing1
                            {
                                OFFSET 8.216979 -0.000004 -1.121373
                                CHANNELS 3 Zrotation Xrotation Yrotation
                                JOINT LeftHandRing2
                                {
                                    OFFSET 4.833515 -0.000005 0.000004
                                    CHANNELS 3 Zrotation Xrotation Yrotation
                                    JOINT LeftHandRing3
                                    {
                                        OFFSET 2.416764 0.000005 -0.000007
                                        CHANNELS 3 Zrotation Xrotation Yrotation
                                        End Site
                                        {
                                            OFFSET 2.459254 0.000000 0.000000
                                        }
                                    }
                                }
                            }
                            JOINT LeftHandPinky1
                            {
                                OFFSET 7.733625 -0.000007 -3.383456
                                CHANNELS 3 Zrotation Xrotation Yrotation
                                JOINT LeftHandPinky2
                                {
                                    OFFSET 3.866815 -0.000002 0.000004
                                    CHANNELS 3 Zrotation Xrotation Yrotation
                                    JOINT LeftHandPinky3
                                    {
                                        OFFSET 1.933414 0.000008 -0.000005
                                        CHANNELS 3 Zrotation Xrotation Yrotation
                                        End Site
                                        {
                                            OFFSET 1.967405 0.000000 0.000000
                                        }
                                    }
                                }
                            }
                        }
                    }
                }
            }
            JOINT RightShoulder
            {
                OFFSET -4.036570 20.304853 -0.371910
                CHANNELS 3 Zrotation Xrotation Yrotation
                JOINT RightArm
                {
                    OFFSET -12.502556 0.000005 -0.000008
                    CHANNELS 3 Zrotation Xrotation Yrotation
                    JOINT RightForeArm
                    {
                        OFFSET -31.806913 0.000006 -0.000009
                        CHANNELS 3 Zrotation Xrotation Yrotation
                        JOINT RightHand
                        {
                            OFFSET -24.843220 0.000001 -0.000006
                            CHANNELS 3 Zrotation Xrotation Yrotation
                            JOINT RightHandThumb1
                            {
                                OFFSET -2.126750 -2.416762 3.383462
                                CHANNELS 3 Zrotation Xrotation Yrotation
                                JOINT RightHandThumb2
                                {
                                    OFFSET -3.212135 -0.000003 0.000001
                                    CHANNELS 3 Zrotation Xrotation Yrotation
                                    JOINT RightHandThumb3
                                    {
                                        OFFSET -2.745442 -0.000002 0.000002
                                        CHANNELS 3 Zrotation Xrotation Yrotation
                                        End Site
                                        {
                                            OFFSET -2.793713 0.000000 0.000000
                                        }
                                    }
                                }
                            }
                            JOINT RightHandIndex1
                            {
                                OFFSET -8.700327 0.000005 3.383456
                                CHANNELS 3 Zrotation Xrotation Yrotation
                                JOINT RightHandIndex2
                                {
                                    OFFSET -4.833513 -0.000001 -0.000007
                                    CHANNELS 3 Zrotation Xrotation Yrotation
                                    JOINT RightHandIndex3
                                    {
                                        OFFSET -2.416767 -0.000005 0.000002
                                        CHANNELS 3 Zrotation Xrotation Yrotation
                                        End Site
                                        {
                                            OFFSET -2.459254 0.000000 0.000000
                                        }
                                    }
                                }
                            }
                            JOINT RightHandMiddle1
                            {
                                OFFSET -8.700325 0.000010 1.121373
                                CHANNELS 3 Zrotation Xrotation Yrotation
                                JOINT RightHandMiddle2
                                {
                                    OFFSET -5.316871 -0.000001 -0.000004
                                    CHANNELS 3 Zrotation Xrotation Yrotation
                                    JOINT RightHandMiddle3
                                    {
                                        OFFSET -2.900104 0.000004 -0.000005
                                        CHANNELS 3 Zrotation Xrotation Yrotation
                                        End Site
                                        {
                                            OFFSET -2.951103 0.000000 0.000000
                                        }
                                    }
                                }
                            }
                            JOINT RightHandRing1
                            {
                                OFFSET -8.216980 0.000000 -1.121377
                                CHANNELS 3 Zrotation Xrotation Yrotation
                                JOINT RightHandRing2
                                {
                                    OFFSET -4.833513 0.000000 -0.000007
                                    CHANNELS 3 Zrotation Xrotation Yrotation
                                    JOINT RightHandRing3
                                    {
                                        OFFSET -2.416767 -0.000005 0.000001
                                        CHANNELS 3 Zrotation Xrotation Yrotation
                                        End Site
                                        {
                                            OFFSET -2.459254 0.000000 0.000000
                                        }
                                    }
                                }
                            }
                            JOINT RightHandPinky1
                            {
                                OFFSET -7.733623 0.000009 -3.383465
                                CHANNELS 3 Zrotation Xrotation Yrotation
                                JOINT RightHandPinky2
                                {
                                    OFFSET -3.866819 0.000000 0.000003
                                    CHANNELS 3 Zrotation Xrotation Yrotation
                                    JOINT RightHandPinky3
                                    {
                                        OFFSET -1.933409 -0.000003 -0.000004
                                        CHANNELS 3 Zrotation Xrotation Yrotation
                                        End Site
                                        {
                                            OFFSET -1.967405 0.000000 0.000000
                                        }
                                    }
                                }
                            }
                        }
                    }
                }
            }
        }
    }
    JOINT LeftUpLeg
    {
        OFFSET 10.175824 0.000004 -0.000004
        CHANNELS 3 Zrotation Xrotation Yrotation
        JOINT LeftLeg
        {
            OFFSET 0.000005 -42.882954 0.000006
            CHANNELS 3 Zrotation Xrotation Yrotation
            JOINT LeftFoot
            {
                OFFSET -0.000004 -39.006775 -0.000003
                CHANNELS 3 Zrotation Xrotation Yrotation
                JOINT LeftToeBase
                {
                    OFFSET -0.000002 -6.614287 15.263733
                    CHANNELS 3 Zrotation Xrotation Yrotation
                    End Site
                    {
                        OFFSET 0.000000 0.000000 4.070332
                    }
                }
            }
        }
    }
    JOINT RightUpLeg
    {
        OFFSET -10.175824 -0.000004 0.000004
        CHANNELS 3 Zrotation Xrotation Yrotation
        JOINT RightLeg
        {
            OFFSET 0.000001 -42.882954 -0.000003
            CHANNELS 3 Zrotation Xrotation Yrotation
            JOINT RightFoot
            {
                OFFSET 0.000002 -39.006771 0.000004
                CHANNELS 3 Zrotation Xrotation Yrotation
                JOINT RightToeBase
                {
                    OFFSET 0.000008 -6.614288 15.263751
                    CHANNELS 3 Zrotation Xrotation Yrotation
                    End Site
                    {
                        OFFSET 0.000000 0.000000 4.070332
                    }
                }
            }
        }
    }
}
MOTION
Frames:    4
Frame Time:    0.002778
-8.162372    87.892082    220.899170    4.453759    -1.514648    -1.656324    0.111783    6.353455    2.385699    0.558916    6.353168    2.336220    5.262343    5.305920    -3.641593    5.262343    5.305921    -3.641593    -8.813138    -1.323390    -1.694348    -45.436871    26.166872    -36.550121    -10.218090    -5.902576    -146.616486    8.116946    3.297143    22.012678    47.448200    38.866440    -34.355030    -35.000000    -0.000004    -0.000001    -0.000000    0.000000    -0.000000    -0.000000    10.000003    0.000003    -0.000000    0.000000    -0.000000    -0.000000    0.000000    -0.000000    -0.000000    0.000000    -0.000000    -0.000000    0.000000    -0.000000    -0.000000    0.000000    -0.000000    -0.000000    0.000000    -0.000000    -0.000000    0.000000    -0.000000    -0.000000    0.000000    -0.000000    -0.000003    -9.999999    -0.000000    -0.000000    0.000000    -0.000000    -0.000000    0.000000    -0.000000    -7.453114    -2.982157    3.230376    31.707552    -7.703015    54.631435    -13.685093    -12.744563    62.030434    -7.095285    5.441578    -36.881939    -47.448204    38.866432    34.355019    34.999996    0.000000    0.000004    -0.000000    0.000000    -0.000000    0.000000    10.000001    -0.000001    -0.000000    0.000000    -0.000000    -0.000000    0.000000    -0.000000    -0.000000    0.000000    -0.000000    -0.000000    0.000000    -0.000000    -0.000000    0.000000    -0.000000    -0.000000    0.000000    -0.000000    -0.000000    0.000000    -0.000000    -0.000000    0.000000    -0.000000    -0.000004    -10.000002    -0.000006    -0.000000    0.000000    -0.000000    -0.000000    0.000000    -0.000000    12.571638    -14.640977    -7.485896    0.000002    40.459263    -0.000001    -17.582981    -25.232428    -0.230766    0.000000    -2.940901    -0.000000    -20.214140    -21.919641    -1.350572    0.000000    49.620148    0.000001    17.976517    -24.391230    -4.573481    0.000000    -0.258775    0.000003    
-8.229843    87.943977    220.852875    4.434784    -1.450610    -1.336718    0.109583    6.367024    2.320785    0.547918    6.366745    2.272176    5.269426    5.246152    -3.653187    5.269425    5.246149    -3.653186    -8.802668    -1.296839    -1.682661    -45.511532    26.109758    -36.475048    -10.312254    -5.836337    -146.668289    8.071502    3.276458    22.007589    47.448215    38.866444    -34.355034    -35.000004    -0.000003    -0.000002    -0.000000    0.000000    -0.000000    0.000003    10.000002    -0.000000    -0.000000    0.000000    -0.000000    -0.000000    0.000000    -0.000000    -0.000000    0.000000    -0.000000    -0.000000    0.000000    -0.000000    -0.000000    0.000000    -0.000000    -0.000000    0.000000    -0.000000    -0.000000    0.000000    -0.000000    -0.000000    0.000000    -0.000000    0.000003    -9.999998    0.000000    -0.000000    0.000000    -0.000000    -0.000000    0.000000    -0.000000    -7.370989    -2.880706    3.188823    31.689070    -7.852159    54.654991    -13.788800    -12.797582    62.372604    -7.213338    5.513000    -36.775215    -47.448215    38.866428    34.355034    35.000008    0.000000    0.000003    -0.000000    0.000000    -0.000000    0.000002    10.000003    -0.000007    -0.000000    0.000000    -0.000000    -0.000000    0.000000    -0.000000    -0.000000    0.000000    -0.000000    -0.000000    0.000000    -0.000000    -0.000000    0.000000    -0.000000    -0.000000    0.000000    -0.000000    -0.000000    0.000000    -0.000000    -0.000000    0.000000    -0.000000    0.000006    -9.999993    0.000007    -0.000000    0.000000    -0.000000    -0.000000    0.000000    -0.000000    12.585610    -14.839216    -7.368900    0.000003    40.451283    -0.000002    -17.653334    -25.032383    -0.138729    -0.000001    -2.959857    0.000000    -20.152130    -21.797905    -1.419199    -0.000001    49.491440    -0.000001    17.951391    -24.423447    -4.838571    -0.000000    -0.256502    0.000001    
-8.291607    87.992668    220.806000    4.415232    -1.390186    -1.023609    0.107931    6.381953    2.256603    0.539661    6.381688    2.208615    5.274991    5.189271    -3.664500    5.274990    5.189269    -3.664500    -8.792614    -1.272876    -1.676353    -45.580688    26.058092    -36.405193    -10.377500    -5.769378    -146.705780    8.039052    3.259583    21.992125    47.448215    38.866440    -34.355034    -35.000008    -0.000001    -0.000003    -0.000000    0.000000    -0.000000    -0.000007    10.000001    0.000002    -0.000000    0.000000    -0.000000    -0.000000    0.000000    -0.000000    -0.000000    0.000000    -0.000000    -0.000000    0.000000    -0.000000    -0.000000    0.000000    -0.000000    -0.000000    0.000000    -0.000000    -0.000000    0.000000    -0.000000    -0.000000    0.000000    -0.000000    -0.000003    -9.999997    0.000003    -0.000000    0.000000    -0.000000    -0.000000    0.000000    -0.000000    -7.292293    -2.782858    3.154206    31.686846    -7.994088    54.668301    -13.891644    -12.848371    62.723000    -7.304773    5.564817    -36.674362    -47.448212    38.866428    34.355038    35.000008    -0.000003    -0.000000    -0.000000    0.000000    -0.000000    0.000001    9.999997    0.000005    -0.000000    0.000000    -0.000000    -0.000000    0.000000    -0.000000    -0.000000    0.000000    -0.000000    -0.000000    0.000000    -0.000000    -0.000000    0.000000    -0.000000    -0.000000    0.000000    -0.000000    -0.000000    0.000000    -0.000000    -0.000000    0.000000    -0.000000    0.000002    -10.000005    0.000002    -0.000000    0.000000    -0.000000    -0.000000    0.000000    -0.000000    12.586161    -15.040854    -7.233961    -0.000001    40.468269    0.000002    -17.715940    -24.844795    -0.021359    0.000000    -2.970474    -0.000000    -20.093111    -21.680811    -1.483760    0.000003    49.368382    -0.000001    17.926373    -24.453144    -5.097434    -0.000000    -0.250818    -0.000000    
-8.353109    88.040733    220.762543    4.397044    -1.330634    -0.718899    0.105788    6.395174    2.193661    0.528935    6.394915    2.146530    5.279361    5.133229    -3.670364    5.279363    5.133236    -3.670366    -8.781595    -1.247742    -1.661251    -45.658226    25.997013    -36.325039    -10.441728    -5.712643    -146.731613    8.015347    3.244377    21.964260    47.448212    38.866432    -34.355038    -34.999996    -0.000000    0.000005    -0.000000    0.000000    -0.000000    0.000000    10.000003    -0.000003    -0.000000    0.000000    -0.000000    -0.000000    0.000000    -0.000000    -0.000000    0.000000    -0.000000    -0.000000    0.000000    -0.000000    -0.000000    0.000000    -0.000000    -0.000000    0.000000    -0.000000    -0.000000    0.000000    -0.000000    -0.000000    0.000000    -0.000000    0.000003    -10.000004    0.000000    -0.000000    0.000000    -0.000000    -0.000000    0.000000    -0.000000    -7.203976    -2.690913    3.120890    31.712132    -8.133128    54.673508    -13.997372    -12.918677    63.094097    -7.403322    5.625878    -36.594429    -47.448212    38.866428    34.355030    35.000000    -0.000004    0.000000    -0.000000    0.000000    -0.000000    -0.000002    10.000003    0.000000    -0.000000    0.000000    -0.000000    -0.000000    0.000000    -0.000000    -0.000000    0.000000    -0.000000    -0.000000    0.000000    -0.000000    -0.000000    0.000000    -0.000000    -0.000000    0.000000    -0.000000    -0.000000    0.000000    -0.000000    -0.000000    0.000000    -0.000000    0.000002    -9.999998    0.000000    -0.000000    0.000000    -0.000000    -0.000000    0.000000    -0.000000    12.580821    -15.233543    -7.106928    -0.000001    40.485424    -0.000000    -17.754681    -24.667711    0.105794    -0.000000    -2.972697    -0.000000    -20.035383    -21.565521    -1.547846    -0.000005    49.246780    0.000002    17.899426    -24.483622    -5.349576    0.000000    -0.249154    -0.000001    
